<svg width="1200" height="760" viewBox="0 0 1200 760" fill="none" xmlns="http://www.w3.org/2000/svg">
  <rect width="1200" height="760" rx="28" fill="#0f1411"/>
  <circle cx="1015" cy="90" r="230" fill="#e2c044" opacity="0.10"/>
  <circle cx="130" cy="710" r="270" fill="#67d68f" opacity="0.08"/>
  <rect x="70" y="52" width="1060" height="656" rx="24" fill="#101713" stroke="#2c3a32" stroke-width="2"/>
  <rect x="100" y="82" width="1000" height="184" rx="24" fill="#18211d" stroke="#2c3a32"/>
  <text x="130" y="135" font-family="JetBrains Mono, Menlo, monospace" font-size="34" font-weight="800" fill="#f3f4e8">Libft Tester Report</text>
  <text x="130" y="170" font-family="JetBrains Mono, Menlo, monospace" font-size="16" fill="#aab5a7">version 1.6.0 | profile normal | seed 42 | duration 1499ms</text>
  <text x="130" y="210" font-family="JetBrains Mono, Menlo, monospace" font-size="22" font-weight="800" fill="#ff6b5f">FAIL - 90% pass rate</text>
  <rect x="130" y="232" width="150" height="36" rx="18" fill="#e2c04422" stroke="#e2c044"/>
  <text x="205" y="255" text-anchor="middle" font-family="JetBrains Mono, Menlo, monospace" font-size="14" font-weight="800" fill="#e2c044">Jump to failures</text>
  <rect x="300" y="232" width="64" height="36" rx="18" fill="#0a0f0c" stroke="#2c3a32"/>
  <text x="332" y="255" text-anchor="middle" font-family="JetBrains Mono, Menlo, monospace" font-size="14" font-weight="800" fill="#f3f4e8">All</text>
  <rect x="378" y="232" width="92" height="36" rx="18" fill="#0a0f0c" stroke="#2c3a32"/>
  <text x="424" y="255" text-anchor="middle" font-family="JetBrains Mono, Menlo, monospace" font-size="14" font-weight="800" fill="#f3f4e8">Failed</text>
  <rect x="484" y="232" width="92" height="36" rx="18" fill="#0a0f0c" stroke="#2c3a32"/>
  <text x="530" y="255" text-anchor="middle" font-family="JetBrains Mono, Menlo, monospace" font-size="14" font-weight="800" fill="#f3f4e8">Passed</text>
  <g font-family="JetBrains Mono, Menlo, monospace">
    <rect x="118" y="300" width="184" height="82" rx="16" fill="#0a0f0c" stroke="#2c3a32"/>
    <text x="140" y="330" font-size="14" fill="#aab5a7">Verdict</text>
    <text x="140" y="362" font-size="28" font-weight="800" fill="#ff6b5f">FAIL</text>
    <rect x="326" y="300" width="184" height="82" rx="16" fill="#0a0f0c" stroke="#2c3a32"/>
    <text x="348" y="330" font-size="14" fill="#aab5a7">Checks</text>
    <text x="348" y="362" font-size="28" font-weight="800" fill="#f3f4e8">10</text>
    <rect x="534" y="300" width="184" height="82" rx="16" fill="#0a0f0c" stroke="#2c3a32"/>
    <text x="556" y="330" font-size="14" fill="#aab5a7">Passed</text>
    <text x="556" y="362" font-size="28" font-weight="800" fill="#67d68f">9/10</text>
    <rect x="742" y="300" width="184" height="82" rx="16" fill="#0a0f0c" stroke="#2c3a32"/>
    <text x="764" y="330" font-size="14" fill="#aab5a7">Failed</text>
    <text x="764" y="362" font-size="28" font-weight="800" fill="#ff6b5f">1/10</text>
  </g>
  <rect x="100" y="402" width="1000" height="74" rx="18" fill="#101713" stroke="#2c3a32"/>
  <text x="130" y="432" font-family="JetBrains Mono, Menlo, monospace" font-size="22" font-weight="800" fill="#f3f4e8">Score Guide</text>
  <text x="130" y="458" font-family="JetBrains Mono, Menlo, monospace" font-size="15" fill="#aab5a7">Every X/Y score means passed/total. Status pills are counters, not ratios.</text>
  <rect x="100" y="496" width="1000" height="100" rx="18" fill="#101713" stroke="#2c3a32"/>
  <text x="130" y="530" font-family="JetBrains Mono, Menlo, monospace" font-size="22" font-weight="800" fill="#f3f4e8">Debug Focus</text>
  <text x="130" y="558" font-family="JetBrains Mono, Menlo, monospace" font-size="15" fill="#aab5a7">Fix one function at a time, then rerun the same seed.</text>
  <rect x="130" y="570" width="152" height="28" rx="14" fill="#e2c04422" stroke="#e2c044"/>
  <text x="206" y="589" text-anchor="middle" font-family="JetBrains Mono, Menlo, monospace" font-size="13" font-weight="800" fill="#e2c044">Copy commands</text>
  <text x="310" y="589" font-family="JetBrains Mono, Menlo, monospace" font-size="14" fill="#f3f4e8">./libft_tester --root '../libft' --only ft_lstmap --verbose --seed 42</text>
  <rect x="100" y="626" width="1000" height="82" rx="18" fill="#101713" stroke="#2c3a32"/>
  <text x="130" y="660" font-family="JetBrains Mono, Menlo, monospace" font-size="22" font-weight="800" fill="#f3f4e8">Function Overview</text>
  <text x="130" y="690" font-family="JetBrains Mono, Menlo, monospace" font-size="16" fill="#f3f4e8">ft_lstmap</text>
  <text x="330" y="690" font-family="JetBrains Mono, Menlo, monospace" font-size="16" fill="#ff6b5f">9/10</text>
  <rect x="430" y="676" width="260" height="13" rx="7" fill="#0a0f0c" stroke="#2c3a32"/>
  <rect x="431" y="677" width="234" height="11" rx="6" fill="url(#grad)"/>
  <rect x="730" y="668" width="84" height="28" rx="14" stroke="#67d68f"/>
  <text x="772" y="687" text-anchor="middle" font-family="JetBrains Mono, Menlo, monospace" font-size="13" font-weight="800" fill="#67d68f">OKx5</text>
  <rect x="826" y="668" width="92" height="28" rx="14" stroke="#67d68f"/>
  <text x="872" y="687" text-anchor="middle" font-family="JetBrains Mono, Menlo, monospace" font-size="13" font-weight="800" fill="#67d68f">MOKx4</text>
  <rect x="930" y="668" width="106" height="28" rx="14" stroke="#ff6b5f"/>
  <text x="983" y="687" text-anchor="middle" font-family="JetBrains Mono, Menlo, monospace" font-size="13" font-weight="800" fill="#ff6b5f">MNOKx1</text>
  <defs>
    <linearGradient id="grad" x1="430" y1="624" x2="690" y2="624" gradientUnits="userSpaceOnUse">
      <stop stop-color="#67d68f"/>
      <stop offset="1" stop-color="#e2c044"/>
    </linearGradient>
  </defs>
</svg>
