<svg width="1200" height="760" viewBox="0 0 1200 760" fill="none" xmlns="http://www.w3.org/2000/svg">
  <rect width="1200" height="760" rx="28" fill="#0f1411"/>
  <circle cx="1030" cy="80" r="220" fill="#e2c044" opacity="0.09"/>
  <circle cx="120" cy="680" r="260" fill="#67d68f" opacity="0.08"/>
  <rect x="70" y="58" width="1060" height="644" rx="22" fill="#101713" stroke="#2c3a32" stroke-width="2"/>
  <rect x="100" y="90" width="1000" height="86" rx="16" fill="#18211d" stroke="#2c3a32"/>
  <text x="600" y="128" text-anchor="middle" font-family="JetBrains Mono, Menlo, monospace" font-size="30" font-weight="800" fill="#f3f4e8">LIBFT TESTER</text>
  <text x="600" y="156" text-anchor="middle" font-family="JetBrains Mono, Menlo, monospace" font-size="15" fill="#aab5a7">interactive menu preview</text>
  <text x="120" y="220" font-family="JetBrains Mono, Menlo, monospace" font-size="22" font-weight="700" fill="#f3f4e8">Libft Tester <tspan fill="#aab5a7">(v1.6.0)</tspan></text>
  <text x="120" y="258" font-family="JetBrains Mono, Menlo, monospace" font-size="18" fill="#aab5a7">target:</text>
  <text x="230" y="258" font-family="JetBrains Mono, Menlo, monospace" font-size="18" fill="#f3f4e8">../libft</text>
  <text x="120" y="292" font-family="JetBrains Mono, Menlo, monospace" font-size="18" fill="#aab5a7">health:</text>
  <text x="230" y="292" font-family="JetBrains Mono, Menlo, monospace" font-size="18" fill="#67d68f">Makefile OK   libft.h OK   libft.a OK   suite OK</text>
  <rect x="120" y="326" width="960" height="86" rx="16" fill="#0a0f0c" stroke="#2c3a32"/>
  <text x="145" y="360" font-family="JetBrains Mono, Menlo, monospace" font-size="18" fill="#aab5a7">recommended:</text>
  <text x="315" y="360" font-family="JetBrains Mono, Menlo, monospace" font-size="18" font-weight="700" fill="#e2c044">[3] Full test</text>
  <text x="145" y="390" font-family="JetBrains Mono, Menlo, monospace" font-size="16" fill="#aab5a7">CLI: ./libft_tester --root '../libft'</text>
  <g font-family="JetBrains Mono, Menlo, monospace" font-size="18">
    <text x="140" y="465" font-size="22" font-weight="800" fill="#f3f4e8">Test Runs</text>
    <text x="160" y="505" fill="#67d68f">1)</text><text x="210" y="505" fill="#f3f4e8">Smart test</text><text x="430" y="505" fill="#aab5a7">best first run, auto fallback</text>
    <text x="160" y="538" fill="#67d68f">2)</text><text x="210" y="538" fill="#f3f4e8">Quick test</text><text x="430" y="538" fill="#aab5a7">fast feedback while coding</text>
    <text x="160" y="571" fill="#67d68f">3)</text><text x="210" y="571" fill="#f3f4e8">Full test</text><text x="430" y="571" fill="#aab5a7">normal complete suite</text>
    <text x="620" y="465" font-size="22" font-weight="800" fill="#f3f4e8">Fix And Inspect</text>
    <text x="640" y="505" fill="#e2c044">5)</text><text x="690" y="505" fill="#f3f4e8">Diagnose project</text>
    <text x="640" y="538" fill="#e2c044">6)</text><text x="690" y="538" fill="#f3f4e8">Rescue test</text>
    <text x="640" y="571" fill="#e2c044">8)</text><text x="690" y="571" fill="#f3f4e8">Explain or hint</text>
    <text x="140" y="642" font-size="22" font-weight="800" fill="#f3f4e8">Reports And Setup</text>
    <text x="160" y="680" fill="#67d68f">9)</text><text x="210" y="680" fill="#f3f4e8">Generate HTML report</text><text x="520" y="680" fill="#aab5a7">standalone visual report</text>
  </g>
</svg>
